<?xml version="1.0" encoding="utf-8"?>
<svg version="1.1" xmlns:xlink="http://www.w3.org/1999/xlink" width="4px" height="4px" xmlns="http://www.w3.org/2000/svg">
  <g transform="matrix(1 0 0 1 -287 -69 )">
    <path d="M 289 69  C 290.12 69  291 69.88  291 71  C 291 72.12  290.12 73  289 73  C 287.88 73  287 72.12  287 71  C 287 69.88  287.88 69  289 69  Z " fill-rule="nonzero" fill="#000000" stroke="none" />
    <path d="M 289 69.5  C 289.84 69.5  290.5 70.16  290.5 71  C 290.5 71.84  289.84 72.5  289 72.5  C 288.16 72.5  287.5 71.84  287.5 71  C 287.5 70.16  288.16 69.5  289 69.5  Z " stroke-width="1" stroke="#797979" fill="none" />
  </g>
</svg>