<?xml version="1.0" encoding="utf-8"?>
<svg version="1.1" xmlns:xlink="http://www.w3.org/1999/xlink" width="20px" height="22px" xmlns="http://www.w3.org/2000/svg">
  <g transform="matrix(1 0 0 1 -306 -165 )">
    <path d="M 4.16466346153846 19.9681919642857  C 4.46514423076923 19.6612723214286  4.61538461538462 19.2909226190476  4.61538461538462 18.8571428571429  C 4.61538461538462 18.4233630952381  4.46514423076923 18.0530133928571  4.16466346153846 17.74609375  C 3.86418269230769 17.4391741071429  3.50160256410256 17.2857142857143  3.07692307692308 17.2857142857143  C 2.65224358974359 17.2857142857143  2.28966346153846 17.4391741071429  1.98918269230769 17.74609375  C 1.68870192307692 18.0530133928571  1.53846153846154 18.4233630952381  1.53846153846154 18.8571428571429  C 1.53846153846154 19.2909226190476  1.68870192307692 19.6612723214286  1.98918269230769 19.9681919642857  C 2.28966346153846 20.2751116071429  2.65224358974359 20.4285714285714  3.07692307692308 20.4285714285714  C 3.50160256410256 20.4285714285714  3.86418269230769 20.2751116071429  4.16466346153846 19.9681919642857  Z M 8.78004807692308 19.9681919642857  C 9.08052884615385 19.6612723214286  9.23076923076923 19.2909226190476  9.23076923076923 18.8571428571429  C 9.23076923076923 18.4233630952381  9.08052884615385 18.0530133928571  8.78004807692308 17.74609375  C 8.47956730769231 17.4391741071429  8.11698717948718 17.2857142857143  7.69230769230769 17.2857142857143  C 7.26762820512821 17.2857142857143  6.90504807692308 17.4391741071429  6.60456730769231 17.74609375  C 6.30408653846154 18.0530133928571  6.15384615384615 18.4233630952381  6.15384615384615 18.8571428571429  C 6.15384615384615 19.2909226190476  6.30408653846154 19.6612723214286  6.60456730769231 19.9681919642857  C 6.90504807692308 20.2751116071429  7.26762820512821 20.4285714285714  7.69230769230769 20.4285714285714  C 8.11698717948718 20.4285714285714  8.47956730769231 20.2751116071429  8.78004807692308 19.9681919642857  Z M 4.16466346153846 15.25390625  C 4.46514423076923 14.9469866071429  4.61538461538462 14.5766369047619  4.61538461538462 14.1428571428571  C 4.61538461538462 13.7090773809524  4.46514423076923 13.3387276785714  4.16466346153846 13.0318080357143  C 3.86418269230769 12.7248883928571  3.50160256410256 12.5714285714286  3.07692307692308 12.5714285714286  C 2.65224358974359 12.5714285714286  2.28966346153846 12.7248883928571  1.98918269230769 13.0318080357143  C 1.68870192307692 13.3387276785714  1.53846153846154 13.7090773809524  1.53846153846154 14.1428571428571  C 1.53846153846154 14.5766369047619  1.68870192307692 14.9469866071429  1.98918269230769 15.25390625  C 2.28966346153846 15.5608258928571  2.65224358974359 15.7142857142857  3.07692307692308 15.7142857142857  C 3.50160256410256 15.7142857142857  3.86418269230769 15.5608258928571  4.16466346153846 15.25390625  Z M 13.3954326923077 19.9681919642857  C 13.6959134615385 19.6612723214286  13.8461538461538 19.2909226190476  13.8461538461538 18.8571428571429  C 13.8461538461538 18.4233630952381  13.6959134615385 18.0530133928571  13.3954326923077 17.74609375  C 13.0949519230769 17.4391741071429  12.7323717948718 17.2857142857143  12.3076923076923 17.2857142857143  C 11.8830128205128 17.2857142857143  11.5204326923077 17.4391741071429  11.2199519230769 17.74609375  C 10.9194711538462 18.0530133928571  10.7692307692308 18.4233630952381  10.7692307692308 18.8571428571429  C 10.7692307692308 19.2909226190476  10.9194711538462 19.6612723214286  11.2199519230769 19.9681919642857  C 11.5204326923077 20.2751116071429  11.8830128205128 20.4285714285714  12.3076923076923 20.4285714285714  C 12.7323717948718 20.4285714285714  13.0949519230769 20.2751116071429  13.3954326923077 19.9681919642857  Z M 8.78004807692308 15.25390625  C 9.08052884615385 14.9469866071429  9.23076923076923 14.5766369047619  9.23076923076923 14.1428571428571  C 9.23076923076923 13.7090773809524  9.08052884615385 13.3387276785714  8.78004807692308 13.0318080357143  C 8.47956730769231 12.7248883928571  8.11698717948718 12.5714285714286  7.69230769230769 12.5714285714286  C 7.26762820512821 12.5714285714286  6.90504807692308 12.7248883928571  6.60456730769231 13.0318080357143  C 6.30408653846154 13.3387276785714  6.15384615384615 13.7090773809524  6.15384615384615 14.1428571428571  C 6.15384615384615 14.5766369047619  6.30408653846154 14.9469866071429  6.60456730769231 15.25390625  C 6.90504807692308 15.5608258928571  7.26762820512821 15.7142857142857  7.69230769230769 15.7142857142857  C 8.11698717948718 15.7142857142857  8.47956730769231 15.5608258928571  8.78004807692308 15.25390625  Z M 4.16466346153846 10.5396205357143  C 4.46514423076923 10.2327008928571  4.61538461538462 9.86235119047619  4.61538461538462 9.42857142857143  C 4.61538461538462 8.99479166666667  4.46514423076923 8.62444196428572  4.16466346153846 8.31752232142857  C 3.86418269230769 8.01060267857143  3.50160256410256 7.85714285714286  3.07692307692308 7.85714285714286  C 2.65224358974359 7.85714285714286  2.28966346153846 8.01060267857143  1.98918269230769 8.31752232142857  C 1.68870192307692 8.62444196428572  1.53846153846154 8.99479166666667  1.53846153846154 9.42857142857143  C 1.53846153846154 9.86235119047619  1.68870192307692 10.2327008928571  1.98918269230769 10.5396205357143  C 2.28966346153846 10.8465401785714  2.65224358974359 11  3.07692307692308 11  C 3.50160256410256 11  3.86418269230769 10.8465401785714  4.16466346153846 10.5396205357143  Z M 13.3954326923077 15.25390625  C 13.6959134615385 14.9469866071429  13.8461538461538 14.5766369047619  13.8461538461538 14.1428571428571  C 13.8461538461538 13.7090773809524  13.6959134615385 13.3387276785714  13.3954326923077 13.0318080357143  C 13.0949519230769 12.7248883928571  12.7323717948718 12.5714285714286  12.3076923076923 12.5714285714286  C 11.8830128205128 12.5714285714286  11.5204326923077 12.7248883928571  11.2199519230769 13.0318080357143  C 10.9194711538462 13.3387276785714  10.7692307692308 13.7090773809524  10.7692307692308 14.1428571428571  C 10.7692307692308 14.5766369047619  10.9194711538462 14.9469866071429  11.2199519230769 15.25390625  C 11.5204326923077 15.5608258928571  11.8830128205128 15.7142857142857  12.3076923076923 15.7142857142857  C 12.7323717948718 15.7142857142857  13.0949519230769 15.5608258928571  13.3954326923077 15.25390625  Z M 8.78004807692308 10.5396205357143  C 9.08052884615385 10.2327008928571  9.23076923076923 9.86235119047619  9.23076923076923 9.42857142857143  C 9.23076923076923 8.99479166666667  9.08052884615385 8.62444196428572  8.78004807692308 8.31752232142857  C 8.47956730769231 8.01060267857143  8.11698717948718 7.85714285714286  7.69230769230769 7.85714285714286  C 7.26762820512821 7.85714285714286  6.90504807692308 8.01060267857143  6.60456730769231 8.31752232142857  C 6.30408653846154 8.62444196428572  6.15384615384615 8.99479166666667  6.15384615384615 9.42857142857143  C 6.15384615384615 9.86235119047619  6.30408653846154 10.2327008928571  6.60456730769231 10.5396205357143  C 6.90504807692308 10.8465401785714  7.26762820512821 11  7.69230769230769 11  C 8.11698717948718 11  8.47956730769231 10.8465401785714  8.78004807692308 10.5396205357143  Z M 18.0048076923077 19.9620535714286  C 18.3092948717949 19.6510416666667  18.4615384615385 19.2827380952381  18.4615384615385 18.8571428571429  L 18.4615384615385 14.1428571428571  C 18.4615384615385 13.7172619047619  18.3092948717949 13.3489583333333  18.0048076923077 13.0379464285714  C 17.7003205128205 12.7269345238095  17.3397435897436 12.5714285714286  16.9230769230769 12.5714285714286  C 16.5064102564103 12.5714285714286  16.1458333333333 12.7269345238095  15.8413461538462 13.0379464285714  C 15.536858974359 13.3489583333333  15.3846153846154 13.7172619047619  15.3846153846154 14.1428571428571  L 15.3846153846154 18.8571428571429  C 15.3846153846154 19.2827380952381  15.536858974359 19.6510416666667  15.8413461538462 19.9620535714286  C 16.1458333333333 20.2730654761905  16.5064102564103 20.4285714285714  16.9230769230769 20.4285714285714  C 17.3397435897436 20.4285714285714  17.7003205128205 20.2730654761905  18.0048076923077 19.9620535714286  Z M 13.3954326923077 10.5396205357143  C 13.6959134615385 10.2327008928571  13.8461538461538 9.86235119047619  13.8461538461538 9.42857142857143  C 13.8461538461538 8.99479166666667  13.6959134615385 8.62444196428572  13.3954326923077 8.31752232142857  C 13.0949519230769 8.01060267857143  12.7323717948718 7.85714285714286  12.3076923076923 7.85714285714286  C 11.8830128205128 7.85714285714286  11.5204326923077 8.01060267857143  11.2199519230769 8.31752232142857  C 10.9194711538462 8.62444196428572  10.7692307692308 8.99479166666667  10.7692307692308 9.42857142857143  C 10.7692307692308 9.86235119047619  10.9194711538462 10.2327008928571  11.2199519230769 10.5396205357143  C 11.5204326923077 10.8465401785714  11.8830128205128 11  12.3076923076923 11  C 12.7323717948718 11  13.0949519230769 10.8465401785714  13.3954326923077 10.5396205357143  Z M 18.2331730769231 6.05245535714286  C 18.3854166666667 5.89694940476191  18.4615384615385 5.71279761904762  18.4615384615385 5.5  L 18.4615384615385 2.35714285714286  C 18.4615384615385 2.14434523809524  18.3854166666667 1.96019345238095  18.2331730769231 1.8046875  C 18.0809294871795 1.64918154761905  17.900641025641 1.57142857142857  17.6923076923077 2  L 2.30769230769231 2  C 2.09935897435897 1.57142857142857  1.91907051282051 1.64918154761905  1.76682692307692 1.8046875  C 1.61458333333333 1.96019345238095  1.53846153846154 2.14434523809524  1.53846153846154 2.35714285714286  L 1.53846153846154 5.5  C 1.53846153846154 5.71279761904762  1.61458333333333 5.89694940476191  1.76682692307692 6.05245535714286  C 1.91907051282051 6.20796130952381  2.09935897435897 6.28571428571429  2.30769230769231 6.28571428571429  L 17.6923076923077 6.28571428571429  C 17.900641025641 6.28571428571429  18.0809294871795 6.20796130952381  18.2331730769231 6.05245535714286  Z M 18.0108173076923 10.5396205357143  C 18.3112980769231 10.2327008928571  18.4615384615385 9.86235119047619  18.4615384615385 9.42857142857143  C 18.4615384615385 8.99479166666667  18.3112980769231 8.62444196428572  18.0108173076923 8.31752232142857  C 17.7103365384615 8.01060267857143  17.3477564102564 7.85714285714286  16.9230769230769 7.85714285714286  C 16.4983974358974 7.85714285714286  16.1358173076923 8.01060267857143  15.8353365384615 8.31752232142857  C 15.5348557692308 8.62444196428572  15.3846153846154 8.99479166666667  15.3846153846154 9.42857142857143  C 15.3846153846154 9.86235119047619  15.5348557692308 10.2327008928571  15.8353365384615 10.5396205357143  C 16.1358173076923 10.8465401785714  16.4983974358974 11  16.9230769230769 11  C 17.3477564102564 11  17.7103365384615 10.8465401785714  18.0108173076923 10.5396205357143  Z M 19.5432692307692 0.466517857142856  C 19.8477564102564 0.777529761904761  20 1.14583333333333  20 1.57142857142857  L 20 20.4285714285714  C 20 20.8541666666667  19.8477564102564 21.2224702380952  19.5432692307692 21.5334821428571  C 19.2387820512821 21.844494047619  18.8782051282051 22  18.4615384615385 22  L 1.53846153846154 22  C 1.12179487179487 22  0.761217948717949 21.844494047619  0.456730769230769 21.5334821428571  C 0.15224358974359 21.2224702380952  0 20.8541666666667  0 20.4285714285714  L 0 1.57142857142857  C 0 1.14583333333333  0.15224358974359 0.777529761904761  0.456730769230769 0.466517857142856  C 0.761217948717949 0.155505952380954  1.12179487179487 0  1.53846153846154 0  L 18.4615384615385 0  C 18.8782051282051 0  19.2387820512821 0.155505952380954  19.5432692307692 0.466517857142856  Z " fill-rule="nonzero" fill="#c280ff" stroke="none" transform="matrix(1 0 0 1 306 165 )" />
  </g>
</svg>